solid Alps2MX
facet normal 0.0 -1.6785514777070792e-16 -1.0
  outer loop
    vertex 84.51233978084588 135.6520914331168 0.0
    vertex 80.16233978084587 133.55209143311677 3.5249581031848984e-16
    vertex 80.16233978084587 135.6520914331168 0.0
  endloop
endfacet
facet normal 0.0 -1.6785514777070792e-16 -1.0
  outer loop
    vertex 80.16233978084587 133.55209143311677 3.5249581031848984e-16
    vertex 84.51233978084588 135.6520914331168 0.0
    vertex 84.51233978084588 133.55209143311677 3.5249581031848984e-16
  endloop
endfacet
facet normal -1.0 1.1486625183492115e-15 7.049916206369872e-16
  outer loop
    vertex 80.16233978084587 135.6520914331168 3.9999999999999996
    vertex 80.16233978084587 133.55209143311677 3.5249581031848984e-16
    vertex 80.16233978084587 133.55209143311677 3.9999999999999996
  endloop
endfacet
facet normal -1.0 1.1486625183492115e-15 7.049916206369872e-16
  outer loop
    vertex 80.16233978084587 133.55209143311677 3.5249581031848984e-16
    vertex 80.16233978084587 135.6520914331168 3.9999999999999996
    vertex 80.16233978084587 135.6520914331168 0.0
  endloop
endfacet
facet normal -2.9038141151218315e-15 -1.0 -7.04991620636982e-15
  outer loop
    vertex 84.51233978084588 133.55209143311677 3.9999999999999996
    vertex 80.16233978084587 133.55209143311677 3.5249581031848984e-16
    vertex 84.51233978084588 133.55209143311677 3.5249581031848984e-16
  endloop
endfacet
facet normal -2.9038141151218315e-15 -1.0 -7.04991620636982e-15
  outer loop
    vertex 80.16233978084587 133.55209143311677 3.5249581031848984e-16
    vertex 84.51233978084588 133.55209143311677 3.9999999999999996
    vertex 80.16233978084587 133.55209143311677 3.9999999999999996
  endloop
endfacet
facet normal -2.9038141151218315e-15 -1.0 -7.04991620636982e-15
  outer loop
    vertex 80.16233978084587 133.55209143311677 3.9999999999999996
    vertex 84.51233978084588 133.55209143311677 3.9999999999999996
    vertex 82.88733978084582 133.55209143311666 4.00000000000003
  endloop
endfacet
facet normal -2.9038141151218315e-15 -1.0 -7.04991620636982e-15
  outer loop
    vertex 80.16233978084587 133.55209143311677 3.9999999999999996
    vertex 82.88733978084582 133.55209143311666 4.00000000000003
    vertex 81.78733978084588 133.55209143311677 4.000000000000025
  endloop
endfacet
facet normal 1.0 -0.0 -0.0
  outer loop
    vertex 84.51233978084588 135.6520914331168 0.0
    vertex 84.51233978084588 133.55209143311677 3.9999999999999996
    vertex 84.51233978084588 133.55209143311677 3.5249581031848984e-16
  endloop
endfacet
facet normal 1.0 -0.0 -0.0
  outer loop
    vertex 84.51233978084588 133.55209143311677 3.9999999999999996
    vertex 84.51233978084588 135.6520914331168 0.0
    vertex 84.51233978084588 135.6520914331168 3.9999999999999996
  endloop
endfacet
facet normal 1.1682718284849145e-13 1.4350719110472747e-14 1.0
  outer loop
    vertex 84.51233978084588 133.55209143311677 3.9999999999999996
    vertex 84.33733978084598 135.15209143311665 3.9999999999999836
    vertex 84.33733978084597 134.0520914331169 4.000000000000057
  endloop
endfacet
facet normal 1.1682718284849145e-13 1.4350719110472747e-14 1.0
  outer loop
    vertex 84.33733978084598 135.15209143311665 3.9999999999999836
    vertex 84.51233978084588 133.55209143311677 3.9999999999999996
    vertex 84.51233978084588 135.6520914331168 3.9999999999999996
  endloop
endfacet
facet normal -2.537969834293601e-13 -1.4350719110473788e-14 1.0
  outer loop
    vertex 80.33733978084584 134.05209143311677 4.000000000000007
    vertex 80.16233978084587 135.6520914331168 3.9999999999999996
    vertex 80.16233978084587 133.55209143311677 3.9999999999999996
  endloop
endfacet
facet normal -2.537969834293601e-13 -1.4350719110473788e-14 1.0
  outer loop
    vertex 80.16233978084587 135.6520914331168 3.9999999999999996
    vertex 80.33733978084584 134.05209143311677 4.000000000000007
    vertex 80.33733978084585 135.15209143311668 4.000000000000081
  endloop
endfacet
facet normal 1.7241592408779556e-14 1.0876602176705424e-13 1.0
  outer loop
    vertex 80.33733978084585 135.15209143311668 4.000000000000081
    vertex 81.78733978084587 135.6520914331168 3.9999999999999996
    vertex 80.16233978084587 135.6520914331168 3.9999999999999996
  endloop
endfacet
facet normal 1.7241592408779556e-14 1.0876602176705424e-13 1.0
  outer loop
    vertex 81.78733978084587 135.6520914331168 3.9999999999999996
    vertex 80.33733978084585 135.15209143311668 4.000000000000081
    vertex 81.78733978084588 135.15209143311665 4.000000000000024
  endloop
endfacet
facet normal -0.0 1.0 -0.0
  outer loop
    vertex 80.16233978084587 135.6520914331168 3.9999999999999996
    vertex 84.51233978084588 135.6520914331168 0.0
    vertex 80.16233978084587 135.6520914331168 0.0
  endloop
endfacet
facet normal -0.0 1.0 -0.0
  outer loop
    vertex 84.51233978084588 135.6520914331168 0.0
    vertex 80.16233978084587 135.6520914331168 3.9999999999999996
    vertex 84.51233978084588 135.6520914331168 3.9999999999999996
  endloop
endfacet
facet normal -0.0 1.0 -0.0
  outer loop
    vertex 84.51233978084588 135.6520914331168 3.9999999999999996
    vertex 80.16233978084587 135.6520914331168 3.9999999999999996
    vertex 81.78733978084587 135.6520914331168 3.9999999999999996
  endloop
endfacet
facet normal -0.0 1.0 -0.0
  outer loop
    vertex 84.51233978084588 135.6520914331168 3.9999999999999996
    vertex 81.78733978084587 135.6520914331168 3.9999999999999996
    vertex 82.88733978084586 135.6520914331168 3.9999999999999996
  endloop
endfacet
facet normal -1.47296707561203e-14 -7.292190306597589e-15 1.0
  outer loop
    vertex 81.78733978084588 133.55209143311677 4.000000000000025
    vertex 80.33733978084584 134.05209143311677 4.000000000000007
    vertex 80.16233978084587 133.55209143311677 3.9999999999999996
  endloop
endfacet
facet normal -1.47296707561203e-14 -7.292190306597589e-15 1.0
  outer loop
    vertex 80.33733978084584 134.05209143311677 4.000000000000007
    vertex 81.78733978084588 133.55209143311677 4.000000000000025
    vertex 81.78733978084588 134.05209143311674 4.0000000000000275
  endloop
endfacet
facet normal -1.0 -6.761519341333477e-15 5.52448819466186e-16
  outer loop
    vertex 81.78733978084587 136.60209143311678 7.999999999999994
    vertex 81.78733978084588 135.15209143311665 4.000000000000024
    vertex 81.78733978084588 135.15209143311665 8.00000000000002
  endloop
endfacet
facet normal -1.0 -6.761519341333477e-15 5.52448819466186e-16
  outer loop
    vertex 81.78733978084588 135.15209143311665 4.000000000000024
    vertex 81.78733978084587 136.60209143311678 7.999999999999994
    vertex 81.78733978084587 135.6520914331168 3.9999999999999996
  endloop
endfacet
facet normal -1.0 -6.761519341333477e-15 5.52448819466186e-16
  outer loop
    vertex 81.78733978084587 135.6520914331168 3.9999999999999996
    vertex 81.78733978084587 136.60209143311678 7.999999999999994
    vertex 81.78733978084587 136.60209143311678 3.9999999999999996
  endloop
endfacet
facet normal -1.0 -5.609996467248285e-14 1.670172699286702e-14
  outer loop
    vertex 81.78733978084603 132.60209143311678 8.000000000000059
    vertex 81.78733978084588 133.55209143311677 4.000000000000025
    vertex 81.78733978084588 132.60209143311673 4.000000000000025
  endloop
endfacet
facet normal -1.0 -5.609996467248285e-14 1.670172699286702e-14
  outer loop
    vertex 81.78733978084588 133.55209143311677 4.000000000000025
    vertex 81.78733978084603 132.60209143311678 8.000000000000059
    vertex 81.78733978084588 134.05209143311674 8.000000000000021
  endloop
endfacet
facet normal -1.0 -5.609996467248285e-14 1.670172699286702e-14
  outer loop
    vertex 81.78733978084588 133.55209143311677 4.000000000000025
    vertex 81.78733978084588 134.05209143311674 8.000000000000021
    vertex 81.78733978084588 134.05209143311674 4.0000000000000275
  endloop
endfacet
facet normal 1.549513800533486e-15 -5.4718181494576804e-14 1.0
  outer loop
    vertex 82.88733978084582 133.55209143311666 4.00000000000003
    vertex 84.33733978084597 134.0520914331169 4.000000000000057
    vertex 82.8873397808458 134.0520914331168 4.0000000000000275
  endloop
endfacet
facet normal 1.549513800533486e-15 -5.4718181494576804e-14 1.0
  outer loop
    vertex 84.33733978084597 134.0520914331169 4.000000000000057
    vertex 82.88733978084582 133.55209143311666 4.00000000000003
    vertex 84.51233978084588 133.55209143311677 3.9999999999999996
  endloop
endfacet
facet normal 6.034557343072878e-15 -1.3745896706496459e-14 1.0
  outer loop
    vertex 82.88733978084588 135.1520914331166 4.0000000000000036
    vertex 84.51233978084588 135.6520914331168 3.9999999999999996
    vertex 82.88733978084586 135.6520914331168 3.9999999999999996
  endloop
endfacet
facet normal 6.034557343072878e-15 -1.3745896706496459e-14 1.0
  outer loop
    vertex 84.51233978084588 135.6520914331168 3.9999999999999996
    vertex 82.88733978084588 135.1520914331166 4.0000000000000036
    vertex 84.33733978084598 135.15209143311665 3.9999999999999836
  endloop
endfacet
facet normal 1.0 2.0965871423282213e-14 -3.5077145083761507e-14
  outer loop
    vertex 82.88733978084582 133.55209143311666 4.00000000000003
    vertex 82.88733978084602 132.60209143311678 8.000000000000078
    vertex 82.8873397808457 132.60209143311673 3.999999999999933
  endloop
endfacet
facet normal 1.0 2.0965871423282213e-14 -3.5077145083761507e-14
  outer loop
    vertex 82.88733978084602 132.60209143311678 8.000000000000078
    vertex 82.88733978084582 133.55209143311666 4.00000000000003
    vertex 82.8873397808458 134.0520914331168 8.000000000000021
  endloop
endfacet
facet normal 1.0 2.0965871423282213e-14 -3.5077145083761507e-14
  outer loop
    vertex 82.8873397808458 134.0520914331168 8.000000000000021
    vertex 82.88733978084582 133.55209143311666 4.00000000000003
    vertex 82.8873397808458 134.0520914331168 4.0000000000000275
  endloop
endfacet
facet normal 0.0 0.0 -1.0
  outer loop
    vertex 82.88733978084586 136.60209143311678 3.9999999999999996
    vertex 81.78733978084587 135.6520914331168 3.9999999999999996
    vertex 81.78733978084587 136.60209143311678 3.9999999999999996
  endloop
endfacet
facet normal 0.0 0.0 -1.0
  outer loop
    vertex 81.78733978084587 135.6520914331168 3.9999999999999996
    vertex 82.88733978084586 136.60209143311678 3.9999999999999996
    vertex 82.88733978084586 135.6520914331168 3.9999999999999996
  endloop
endfacet
facet normal 0.0 1.0 0.0
  outer loop
    vertex 81.78733978084587 136.60209143311678 7.999999999999994
    vertex 82.88733978084586 136.60209143311678 3.9999999999999996
    vertex 81.78733978084587 136.60209143311678 3.9999999999999996
  endloop
endfacet
facet normal 0.0 1.0 0.0
  outer loop
    vertex 82.88733978084586 136.60209143311678 3.9999999999999996
    vertex 81.78733978084587 136.60209143311678 7.999999999999994
    vertex 82.88733978084586 136.60209143311678 7.999999999999994
  endloop
endfacet
facet normal -4.1594505617580635e-14 5.120465455152714e-14 -1.0
  outer loop
    vertex 82.88733978084582 133.55209143311666 4.00000000000003
    vertex 81.78733978084588 132.60209143311673 4.000000000000025
    vertex 81.78733978084588 133.55209143311677 4.000000000000025
  endloop
endfacet
facet normal -4.1594505617580635e-14 5.120465455152714e-14 -1.0
  outer loop
    vertex 81.78733978084588 132.60209143311673 4.000000000000025
    vertex 82.88733978084582 133.55209143311666 4.00000000000003
    vertex 82.8873397808457 132.60209143311673 3.999999999999933
  endloop
endfacet
facet normal 2.255973186038531e-14 -1.0 1.561827590334055e-14
  outer loop
    vertex 82.88733978084602 132.60209143311678 8.000000000000078
    vertex 81.78733978084588 132.60209143311673 4.000000000000025
    vertex 82.8873397808457 132.60209143311673 3.999999999999933
  endloop
endfacet
facet normal 2.255973186038531e-14 -1.0 1.561827590334055e-14
  outer loop
    vertex 81.78733978084588 132.60209143311673 4.000000000000025
    vertex 82.88733978084602 132.60209143311678 8.000000000000078
    vertex 81.78733978084603 132.60209143311678 8.000000000000059
  endloop
endfacet
facet normal -1.0 5.127211786449846e-15 2.6789681584204912e-14
  outer loop
    vertex 80.33733978084595 135.15209143311662 8.000000000000073
    vertex 80.33733978084584 134.05209143311677 4.000000000000007
    vertex 80.33733978084595 134.05209143311652 8.000000000000117
  endloop
endfacet
facet normal -1.0 5.127211786449846e-15 2.6789681584204912e-14
  outer loop
    vertex 80.33733978084584 134.05209143311677 4.000000000000007
    vertex 80.33733978084595 135.15209143311662 8.000000000000073
    vertex 80.33733978084585 135.15209143311668 4.000000000000081
  endloop
endfacet
facet normal 1.0 -5.127211786452275e-15 3.2429614549301614e-14
  outer loop
    vertex 84.33733978084597 134.0520914331169 4.000000000000057
    vertex 84.33733978084584 135.15209143311665 7.999999999999985
    vertex 84.33733978084584 134.0520914331168 7.99999999999985
  endloop
endfacet
facet normal 1.0 -5.127211786452275e-15 3.2429614549301614e-14
  outer loop
    vertex 84.33733978084584 135.15209143311665 7.999999999999985
    vertex 84.33733978084597 134.0520914331169 4.000000000000057
    vertex 84.33733978084598 135.15209143311665 3.9999999999999836
  endloop
endfacet
facet normal -7.77921788288972e-15 1.0 8.459899447643804e-15
  outer loop
    vertex 80.33733978084585 135.15209143311668 4.000000000000081
    vertex 81.78733978084588 135.15209143311665 8.00000000000002
    vertex 81.78733978084588 135.15209143311665 4.000000000000024
  endloop
endfacet
facet normal -7.77921788288972e-15 1.0 8.459899447643804e-15
  outer loop
    vertex 81.78733978084588 135.15209143311665 8.00000000000002
    vertex 80.33733978084585 135.15209143311668 4.000000000000081
    vertex 80.33733978084595 135.15209143311662 8.000000000000073
  endloop
endfacet
facet normal -4.6675307297343507e-14 1.0 -7.8978822800387785e-28
  outer loop
    vertex 82.88733978084588 135.1520914331166 4.0000000000000036
    vertex 84.33733978084584 135.15209143311665 7.999999999999985
    vertex 84.33733978084598 135.15209143311665 3.9999999999999836
  endloop
endfacet
facet normal -4.6675307297343507e-14 1.0 -7.8978822800387785e-28
  outer loop
    vertex 84.33733978084584 135.15209143311665 7.999999999999985
    vertex 82.88733978084588 135.1520914331166 4.0000000000000036
    vertex 82.88733978084588 135.1520914331166 7.9999999999999964
  endloop
endfacet
facet normal 7.001296094601331e-14 -1.0 -3.1019631308027894e-14
  outer loop
    vertex 81.78733978084588 134.05209143311674 4.0000000000000275
    vertex 80.33733978084595 134.05209143311652 8.000000000000117
    vertex 80.33733978084584 134.05209143311677 4.000000000000007
  endloop
endfacet
facet normal 7.001296094601331e-14 -1.0 -3.1019631308027894e-14
  outer loop
    vertex 80.33733978084595 134.05209143311652 8.000000000000117
    vertex 81.78733978084588 134.05209143311674 4.0000000000000275
    vertex 81.78733978084588 134.05209143311674 8.000000000000021
  endloop
endfacet
facet normal 3.8896089414452235e-14 -1.0 -1.4099832412738912e-14
  outer loop
    vertex 84.33733978084597 134.0520914331169 4.000000000000057
    vertex 82.8873397808458 134.0520914331168 8.000000000000021
    vertex 82.8873397808458 134.0520914331168 4.0000000000000275
  endloop
endfacet
facet normal 3.8896089414452235e-14 -1.0 -1.4099832412738912e-14
  outer loop
    vertex 82.8873397808458 134.0520914331168 8.000000000000021
    vertex 84.33733978084597 134.0520914331169 4.000000000000057
    vertex 84.33733978084584 134.0520914331168 7.99999999999985
  endloop
endfacet
facet normal 1.0 6.761519341333285e-15 -5.524488194661607e-16
  outer loop
    vertex 82.88733978084586 135.6520914331168 3.9999999999999996
    vertex 82.88733978084588 135.1520914331166 7.9999999999999964
    vertex 82.88733978084588 135.1520914331166 4.0000000000000036
  endloop
endfacet
facet normal 1.0 6.761519341333285e-15 -5.524488194661607e-16
  outer loop
    vertex 82.88733978084588 135.1520914331166 7.9999999999999964
    vertex 82.88733978084586 135.6520914331168 3.9999999999999996
    vertex 82.88733978084586 136.60209143311678 7.999999999999994
  endloop
endfacet
facet normal 1.0 6.761519341333285e-15 -5.524488194661607e-16
  outer loop
    vertex 82.88733978084586 136.60209143311678 7.999999999999994
    vertex 82.88733978084586 135.6520914331168 3.9999999999999996
    vertex 82.88733978084586 136.60209143311678 3.9999999999999996
  endloop
endfacet
facet normal 3.8808110164588406e-14 1.562149749490865e-14 1.0
  outer loop
    vertex 81.78733978084588 134.05209143311674 8.000000000000021
    vertex 80.33733978084595 135.15209143311662 8.000000000000073
    vertex 80.33733978084595 134.05209143311652 8.000000000000117
  endloop
endfacet
facet normal 3.8808110164588406e-14 1.562149749490865e-14 1.0
  outer loop
    vertex 80.33733978084595 135.15209143311662 8.000000000000073
    vertex 81.78733978084588 134.05209143311674 8.000000000000021
    vertex 81.78733978084588 135.15209143311665 8.00000000000002
  endloop
endfacet
facet normal 3.8808110164588406e-14 1.562149749490865e-14 1.0
  outer loop
    vertex 81.78733978084588 135.15209143311665 8.00000000000002
    vertex 81.78733978084588 134.05209143311674 8.000000000000021
    vertex 81.78733978084603 132.60209143311678 8.000000000000059
  endloop
endfacet
facet normal 3.8808110164588406e-14 1.562149749490865e-14 1.0
  outer loop
    vertex 82.88733978084602 132.60209143311678 8.000000000000078
    vertex 82.8873397808458 134.0520914331168 8.000000000000021
    vertex 81.78733978084603 132.60209143311678 8.000000000000059
  endloop
endfacet
facet normal 3.8808110164588406e-14 1.562149749490865e-14 1.0
  outer loop
    vertex 81.78733978084588 135.15209143311665 8.00000000000002
    vertex 82.88733978084586 136.60209143311678 7.999999999999994
    vertex 81.78733978084587 136.60209143311678 7.999999999999994
  endloop
endfacet
facet normal 3.8808110164588406e-14 1.562149749490865e-14 1.0
  outer loop
    vertex 82.88733978084586 136.60209143311678 7.999999999999994
    vertex 81.78733978084588 135.15209143311665 8.00000000000002
    vertex 81.78733978084603 132.60209143311678 8.000000000000059
  endloop
endfacet
facet normal 3.8808110164588406e-14 1.562149749490865e-14 1.0
  outer loop
    vertex 82.88733978084586 136.60209143311678 7.999999999999994
    vertex 81.78733978084603 132.60209143311678 8.000000000000059
    vertex 82.8873397808458 134.0520914331168 8.000000000000021
  endloop
endfacet
facet normal 3.8808110164588406e-14 1.562149749490865e-14 1.0
  outer loop
    vertex 82.88733978084586 136.60209143311678 7.999999999999994
    vertex 82.8873397808458 134.0520914331168 8.000000000000021
    vertex 82.88733978084588 135.1520914331166 7.9999999999999964
  endloop
endfacet
facet normal 3.8808110164588406e-14 1.562149749490865e-14 1.0
  outer loop
    vertex 82.88733978084588 135.1520914331166 7.9999999999999964
    vertex 82.8873397808458 134.0520914331168 8.000000000000021
    vertex 84.33733978084584 134.0520914331168 7.99999999999985
  endloop
endfacet
facet normal 3.8808110164588406e-14 1.562149749490865e-14 1.0
  outer loop
    vertex 82.88733978084588 135.1520914331166 7.9999999999999964
    vertex 84.33733978084584 134.0520914331168 7.99999999999985
    vertex 84.33733978084584 135.15209143311665 7.999999999999985
  endloop
endfacet
endsolid Alps2MX
